<svg xmlns="http://www.w3.org/2000/svg" width="100" height="100" viewBox="0 0 100 100"><rect width="100" height="100" rx="22" fill="#E6F0FF"/><path d="M57.87 60.66L57.87 60.66Q57.87 67.65 52.58 71.61Q47.29 75.56 37.17 75.56L37.17 75.56Q29.35 75.56 24.34 73.31Q19.32 71.06 19.32 66.27L19.32 66.27Q19.32 64.06 20.24 62.5Q21.16 60.94 22.45 60.02L22.45 60.02Q25.12 61.49 28.57 62.64Q32.02 63.79 36.53 63.79L36.53 63.79Q42.42 63.79 42.42 60.75L42.42 60.75Q42.42 59.46 41.31 58.73Q40.21 57.99 37.63 57.53L37.63 57.53L34.87 56.98Q26.96 55.42 23 52.01Q19.05 48.61 19.05 42.44L19.05 42.44Q19.05 35.54 24.66 31.68Q30.27 27.82 39.29 27.82L39.29 27.82Q43.8 27.82 47.52 28.69Q51.25 29.56 53.46 31.45Q55.66 33.34 55.66 36.28L55.66 36.28Q55.66 38.3 54.88 39.87Q54.1 41.43 52.9 42.44L52.9 42.44Q51.89 41.8 49.73 41.16Q47.57 40.51 45.08 40.05Q42.6 39.59 40.67 39.59L40.67 39.59Q37.63 39.59 35.98 40.28Q34.32 40.97 34.32 42.44L34.32 42.44Q34.32 43.46 35.24 44.1Q36.16 44.74 38.74 45.3L38.74 45.3L41.59 45.94Q50.42 47.96 54.15 51.51Q57.87 55.05 57.87 60.66" fill="#14304D"/><circle cx="73" cy="63.5" r="10.5" fill="#EE5E00"/></svg>
